<svg xmlns="http://www.w3.org/2000/svg" xmlns:xlink="http://www.w3.org/1999/xlink" width="375" zoomAndPan="magnify" viewBox="0 0 281.25 149.999998" height="200" preserveAspectRatio="xMidYMid meet" version="1.0"><defs><g/><clipPath id="id1"><path d="M 238 57 L 277 57 L 277 89 L 238 89 Z M 238 57 " clip-rule="nonzero"/></clipPath><clipPath id="id2"><path d="M 235.875 60.519531 L 272.398438 51.554688 L 280.46875 84.429688 L 243.941406 93.390625 Z M 235.875 60.519531 " clip-rule="nonzero"/></clipPath><clipPath id="id3"><path d="M 235.875 60.519531 L 272.398438 51.554688 L 280.46875 84.429688 L 243.941406 93.390625 Z M 235.875 60.519531 " clip-rule="nonzero"/></clipPath><clipPath id="id4"><path d="M 267 71 L 271 71 L 271 75 L 267 75 Z M 267 71 " clip-rule="nonzero"/></clipPath><clipPath id="id5"><path d="M 235.875 60.519531 L 272.398438 51.554688 L 280.46875 84.429688 L 243.941406 93.390625 Z M 235.875 60.519531 " clip-rule="nonzero"/></clipPath><clipPath id="id6"><path d="M 235.875 60.519531 L 272.398438 51.554688 L 280.46875 84.429688 L 243.941406 93.390625 Z M 235.875 60.519531 " clip-rule="nonzero"/></clipPath><clipPath id="id7"><path d="M 82 82 L 168 82 L 168 149.800781 L 82 149.800781 Z M 82 82 " clip-rule="nonzero"/></clipPath></defs><g clip-path="url(#id1)"><g clip-path="url(#id2)"><g clip-path="url(#id3)"><path fill="#212121" d="M 274.261719 71.609375 C 275.085938 72.769531 275.320312 74.242188 275.03125 75.804688 C 273.789062 76.796875 272.484375 76.746094 272.417969 76.742188 C 272.164062 76.730469 271.945312 76.921875 271.933594 77.175781 C 271.917969 77.433594 272.113281 77.652344 272.367188 77.667969 C 272.433594 77.671875 273.484375 77.714844 274.683594 77.117188 C 274.273438 78.296875 273.601562 79.492188 272.691406 80.625 C 270.828125 80.183594 268.277344 79.199219 266.570312 77.015625 C 265.578125 75.742188 264.976562 74.183594 264.78125 72.355469 C 264.710938 71.734375 264.6875 71.078125 264.710938 70.394531 C 264.941406 70.296875 265.167969 70.214844 265.398438 70.132812 C 267.886719 69.253906 270.308594 69.183594 272.125 69.941406 C 272.996094 70.300781 273.730469 70.859375 274.261719 71.609375 Z M 269.546875 83.597656 C 269.070312 83.941406 268.582031 84.253906 268.09375 84.527344 C 266.214844 84.167969 263.242188 83.222656 261.335938 80.777344 C 259.957031 79.015625 259.332031 76.699219 259.472656 73.882812 C 259.773438 73.582031 260.09375 73.292969 260.429688 73.007812 C 260.753906 72.734375 261.09375 72.46875 261.449219 72.210938 C 261.621094 72.089844 261.789062 71.972656 261.964844 71.859375 C 261.984375 72.214844 262.019531 72.5625 262.0625 72.902344 C 262.34375 75.144531 263.125 77.089844 264.402344 78.726562 C 266.128906 80.9375 268.449219 82.175781 270.484375 82.875 C 270.183594 83.121094 269.871094 83.363281 269.546875 83.597656 Z M 260.226562 86.257812 C 259.25 86.082031 258.382812 85.722656 257.675781 85.175781 C 256.984375 84.511719 256.351562 83.589844 256.125 82.992188 C 255.566406 81.332031 255.878906 79.304688 256.914062 77.3125 C 257.257812 79.28125 258.007812 81.011719 259.164062 82.492188 C 260.535156 84.25 262.28125 85.390625 263.960938 86.132812 C 262.632812 86.421875 261.359375 86.464844 260.226562 86.257812 Z M 248.433594 74.410156 C 245.964844 74.117188 243.582031 73.171875 241.566406 71.621094 C 243.207031 69.695312 245.339844 68.273438 247.773438 67.476562 C 247.980469 67.40625 248.1875 67.347656 248.394531 67.292969 C 248.449219 67.273438 248.503906 67.261719 248.558594 67.246094 C 248.734375 67.199219 248.914062 67.15625 249.09375 67.117188 C 249.148438 67.105469 249.199219 67.09375 249.253906 67.085938 C 249.433594 67.046875 249.613281 67.011719 249.796875 66.984375 C 249.851562 66.972656 249.910156 66.964844 249.964844 66.960938 C 250.121094 66.933594 250.28125 66.914062 250.4375 66.894531 C 250.535156 66.886719 250.636719 66.871094 250.738281 66.859375 C 252.292969 66.714844 253.855469 66.828125 255.359375 67.199219 C 257.207031 67.652344 258.96875 68.484375 260.515625 69.667969 C 260.199219 70.039062 259.859375 70.390625 259.511719 70.726562 C 259.332031 70.894531 259.148438 71.058594 258.960938 71.21875 C 258.90625 71.269531 258.84375 71.320312 258.785156 71.367188 C 258.558594 71.554688 258.324219 71.738281 258.078125 71.914062 C 257.832031 72.09375 257.574219 72.261719 257.308594 72.421875 C 257.238281 72.46875 257.167969 72.515625 257.09375 72.554688 C 256.222656 73.070312 255.292969 73.5 254.308594 73.820312 C 252.390625 74.445312 250.386719 74.636719 248.433594 74.410156 Z M 246.929688 60.351562 C 249.398438 59.824219 251.953125 59.992188 254.378906 60.851562 C 257.984375 62.121094 260.878906 64.84375 262.449219 68.265625 C 258.71875 65.152344 253.792969 63.871094 249.085938 64.75 C 249.066406 64.753906 249.046875 64.761719 249.027344 64.765625 C 248.09375 63.441406 247.371094 61.949219 246.929688 60.351562 Z M 274.234375 64.457031 C 274.179688 64.433594 274.117188 64.421875 274.054688 64.417969 C 272.992188 64.339844 270.96875 64.871094 269.949219 67.195312 C 269.703125 65.621094 270.140625 64.550781 270.65625 63.882812 C 271.121094 64.386719 271.890625 64.480469 272.457031 64.074219 C 273.074219 63.628906 273.21875 62.761719 272.773438 62.140625 C 272.328125 61.515625 271.472656 61.371094 270.855469 61.816406 C 270.804688 61.851562 270.761719 61.894531 270.71875 61.9375 C 269.839844 62.550781 267.988281 64.289062 268.621094 67.628906 C 267.445312 67.695312 266.214844 67.925781 264.972656 68.339844 C 263.28125 63.859375 259.691406 60.269531 255.132812 58.660156 C 251.90625 57.523438 248.480469 57.429688 245.222656 58.394531 C 244.652344 58.5625 244.308594 59.136719 244.421875 59.722656 C 244.816406 61.773438 245.597656 63.691406 246.6875 65.410156 C 243.601562 66.496094 240.957031 68.453125 239.03125 71.105469 C 238.683594 71.582031 238.753906 72.257812 239.199219 72.65625 C 243.496094 76.519531 249.566406 77.8125 255.027344 76.023438 C 255.25 75.953125 255.464844 75.871094 255.683594 75.789062 C 254.160156 78.375 253.644531 81.136719 254.347656 83.4375 C 254.308594 83.464844 254.269531 83.484375 254.230469 83.507812 C 253.121094 84.308594 252.75 85.695312 253.394531 86.601562 C 254.042969 87.511719 255.464844 87.609375 256.578125 86.808594 C 256.613281 86.78125 256.644531 86.75 256.679688 86.71875 C 259.199219 88.554688 263.109375 88.683594 266.972656 87.128906 C 268.210938 86.628906 269.441406 85.957031 270.621094 85.109375 L 270.691406 85.058594 C 271.382812 84.554688 272.023438 84.015625 272.609375 83.449219 C 273.421875 82.667969 274.128906 81.828125 274.722656 80.960938 C 277.191406 77.386719 277.738281 73.324219 275.757812 70.53125 C 274.710938 69.0625 273.101562 68.144531 271.207031 67.785156 C 271.660156 66.726562 272.335938 66.226562 272.914062 65.992188 C 273.109375 66.429688 273.558594 66.710938 274.054688 66.65625 C 274.667969 66.59375 275.109375 66.039062 275.042969 65.421875 C 274.992188 64.949219 274.660156 64.578125 274.234375 64.457031 " fill-opacity="1" fill-rule="nonzero"/></g></g></g><g clip-path="url(#id4)"><g clip-path="url(#id5)"><g clip-path="url(#id6)"><path fill="#212121" d="M 270.445312 71.839844 C 270.898438 72.476562 270.753906 73.367188 270.117188 73.824219 C 269.484375 74.28125 268.597656 74.132812 268.144531 73.492188 C 267.6875 72.851562 267.832031 71.960938 268.46875 71.503906 C 268.570312 71.429688 268.679688 71.375 268.792969 71.332031 C 268.542969 71.574219 268.5 71.972656 268.710938 72.265625 C 268.941406 72.589844 269.386719 72.664062 269.707031 72.433594 C 270.027344 72.203125 270.101562 71.753906 269.871094 71.429688 C 269.84375 71.394531 269.816406 71.359375 269.785156 71.332031 C 270.039062 71.425781 270.273438 71.597656 270.445312 71.839844 " fill-opacity="1" fill-rule="nonzero"/></g></g></g><g fill="#212121" fill-opacity="1"><g transform="translate(6.963379, 98.187069)"><g><path d="M 57.53125 -36.316406 C 57.53125 -40.625 53.195312 -42.710938 44.433594 -42.710938 C 26.804688 -42.710938 7.203125 -30.808594 0.5 -22.664062 C 0.363281 -22.46875 0.277344 -22.273438 0.277344 -22.023438 C 0.277344 -21.464844 0.722656 -21.023438 1.277344 -21.023438 C 1.585938 -21.023438 1.863281 -21.160156 2.058594 -21.382812 C 8.535156 -29.253906 27.363281 -40.707031 44.433594 -40.707031 C 51.886719 -40.707031 55.527344 -39.234375 55.527344 -36.316406 C 55.527344 -30.476562 47.4375 -24.859375 38.984375 -21.382812 C 38.929688 -21.355469 38.902344 -21.355469 38.789062 -21.382812 C 37.203125 -21.828125 35.257812 -22.078125 32.921875 -22.078125 C 26.886719 -22.078125 22.382812 -20.4375 22.21875 -18.101562 C 22.132812 -16.878906 23.414062 -15.960938 25.109375 -15.960938 C 28.613281 -15.960938 33.730469 -17.183594 38.816406 -19.242188 C 38.875 -19.269531 38.902344 -19.269531 38.957031 -19.242188 C 41.542969 -18.296875 42.820312 -16.601562 42.820312 -14.097656 C 42.820312 -12.820312 42.570312 -11.566406 42.125 -10.34375 L 42.125 -10.316406 C 42.097656 -10.34375 42.097656 -10.34375 42.070312 -10.34375 C 38.566406 -11.039062 34.785156 -11.371094 30.78125 -11.371094 C 24.582031 -11.371094 17.933594 -10.457031 12.039062 -8.785156 C 22.160156 -21.078125 34.0625 -32.671875 39.566406 -35.980469 C 39.875 -36.148438 40.070312 -36.480469 40.070312 -36.84375 C 40.070312 -37.398438 39.625 -37.84375 39.066406 -37.84375 C 38.902344 -37.84375 38.707031 -37.789062 38.539062 -37.707031 C 32.535156 -34.0625 19.296875 -21.023438 8.621094 -7.757812 C 8.59375 -7.703125 8.535156 -7.675781 8.453125 -7.617188 C 1.5 -5.144531 -2.585938 -1.945312 -2.585938 1.085938 C -2.585938 2.613281 -1.890625 3.894531 -0.582031 4.894531 C -0.582031 4.894531 -0.554688 4.921875 -0.554688 4.921875 C -1.417969 6.257812 -2.222656 7.5625 -2.917969 8.84375 C -3.003906 9.007812 -3.058594 9.175781 -3.058594 9.34375 C -3.058594 9.898438 -2.613281 10.34375 -2.058594 10.34375 C -1.695312 10.34375 -1.335938 10.121094 -1.167969 9.816406 C -0.445312 8.535156 0.304688 7.230469 1.195312 5.867188 L 1.222656 5.867188 C 3.058594 6.617188 5.5625 6.980469 8.648438 6.980469 C 21.746094 6.980469 38.066406 1.167969 43.210938 -8.035156 L 43.210938 -8.0625 L 43.238281 -8.035156 C 44.933594 -7.675781 46.492188 -7.230469 47.992188 -6.703125 C 48.078125 -6.671875 48.1875 -6.644531 48.328125 -6.644531 C 48.882812 -6.644531 49.328125 -7.089844 49.328125 -7.648438 C 49.328125 -8.089844 49.050781 -8.480469 48.632812 -8.59375 C 47.132812 -9.121094 45.601562 -9.566406 44.074219 -9.925781 L 44.046875 -9.925781 C 44.574219 -11.234375 44.824219 -12.625 44.824219 -14.097656 C 44.824219 -16.851562 43.628906 -18.992188 41.347656 -20.328125 C 49.660156 -24.082031 57.53125 -29.976562 57.53125 -36.316406 Z M 24.21875 -17.933594 C 24.273438 -18.878906 28.890625 -20.074219 32.921875 -20.074219 C 33.703125 -20.074219 34.453125 -20.046875 35.257812 -19.964844 C 31.308594 -18.6875 27.695312 -17.960938 25.109375 -17.960938 C 24.832031 -17.960938 24.21875 -17.960938 24.21875 -17.933594 Z M 8.648438 4.976562 C 6.035156 4.976562 3.863281 4.671875 2.308594 4.171875 C 4.476562 0.917969 6.980469 -2.445312 9.648438 -5.839844 C 9.703125 -5.894531 9.730469 -5.921875 9.816406 -5.921875 C 15.792969 -7.953125 23.550781 -9.371094 30.78125 -9.371094 C 34.453125 -9.371094 37.929688 -9.066406 41.179688 -8.453125 C 36.230469 -0.25 21.242188 4.976562 8.648438 4.976562 Z M 0.554688 3.226562 C -0.222656 2.640625 -0.582031 1.945312 -0.582031 1.085938 C -0.582031 -0.613281 1.808594 -2.613281 6.117188 -4.53125 C 4.058594 -1.863281 2.195312 0.722656 0.554688 3.226562 Z M 2.308594 4.144531 L 2.308594 4.171875 Z M 2.308594 4.144531 "/></g></g></g><g fill="#212121" fill-opacity="1"><g transform="translate(61.293705, 98.187069)"><g><path d="M 37.453125 -11.371094 C 37.234375 -11.371094 37.039062 -11.316406 36.871094 -11.179688 C 30.390625 -6.730469 18.6875 -1.722656 14.792969 -1.722656 C 12.789062 -1.722656 11.984375 -2.308594 11.984375 -3.726562 C 11.984375 -6.117188 14.652344 -9.175781 16.515625 -11.261719 C 18.6875 -13.707031 18.851562 -14.988281 17.074219 -14.988281 C 16.238281 -14.988281 14.542969 -13.542969 10.511719 -10.261719 C 4.171875 -5.144531 0.613281 -2.726562 -0.722656 -2.726562 C -0.863281 -2.726562 -1.027344 -2.808594 -1.027344 -3.113281 C -1.027344 -4.617188 1.5 -7.8125 5.671875 -11.59375 L 5.644531 -11.566406 C 5.867188 -11.707031 6.007812 -12.011719 6.007812 -12.316406 C 6.007812 -12.847656 5.535156 -13.320312 5.003906 -13.320312 C 4.753906 -13.320312 4.503906 -13.207031 4.335938 -13.042969 C -0.417969 -8.816406 -3.03125 -5.226562 -3.03125 -2.949219 C -3.03125 -1.585938 -2.167969 -0.722656 -0.835938 -0.722656 C 1.417969 -0.722656 7.839844 -5.617188 11.207031 -8.3125 C 11.621094 -8.648438 11.789062 -8.480469 11.484375 -7.980469 C 10.457031 -6.3125 9.984375 -5.0625 9.984375 -3.726562 C 9.984375 -1.140625 11.679688 0.277344 14.792969 0.277344 C 19.296875 0.277344 31.644531 -5.171875 38.011719 -9.539062 C 38.289062 -9.730469 38.457031 -10.039062 38.457031 -10.371094 C 38.457031 -10.898438 37.984375 -11.371094 37.453125 -11.371094 Z M 37.453125 -11.371094 "/></g></g></g><g fill="#212121" fill-opacity="1"><g transform="translate(95.854914, 98.187069)"><g><path d="M 35.953125 -11.289062 C 35.816406 -11.289062 35.703125 -11.261719 35.621094 -11.234375 C 31.839844 -9.953125 27.390625 -8.675781 23.023438 -7.394531 C 19.546875 -6.421875 16.128906 -5.394531 13.207031 -4.476562 C 13.261719 -4.671875 13.292969 -4.894531 13.320312 -5.0625 C 13.429688 -6.3125 12.457031 -7.035156 10.761719 -7.035156 C 9.730469 -7.035156 8.34375 -6.8125 7.007812 -6.589844 C 5.5625 -6.339844 4.171875 -6.117188 3.058594 -6.117188 C 2.085938 -6.117188 1.75 -6.257812 1.75 -6.671875 C 1.75 -9.121094 8.257812 -14.042969 11.789062 -14.042969 C 12.097656 -14.042969 12.347656 -13.957031 12.347656 -13.734375 C 12.347656 -13.011719 11.371094 -11.679688 10.425781 -11.121094 C 10.121094 -10.957031 9.925781 -10.621094 9.925781 -10.261719 C 9.925781 -9.703125 10.371094 -9.257812 10.929688 -9.257812 C 11.09375 -9.257812 11.289062 -9.316406 11.457031 -9.398438 C 12.707031 -10.148438 13.902344 -11.761719 14.292969 -13.261719 C 14.320312 -13.402344 14.347656 -13.652344 14.347656 -13.847656 C 14.347656 -15.183594 13.347656 -16.042969 11.789062 -16.042969 C 7.0625 -16.042969 -0.25 -10.261719 -0.25 -6.480469 C -0.25 -4.949219 0.945312 -4.117188 3.058594 -4.117188 C 4.308594 -4.117188 5.894531 -4.367188 7.339844 -4.617188 C 9.175781 -4.921875 11.148438 -5.394531 11.371094 -5.003906 C 11.484375 -4.808594 11.121094 -4.226562 10.761719 -3.699219 L 10.59375 -3.585938 C 2.476562 -0.75 -2.976562 2.335938 -2.976562 4.421875 C -2.976562 5.589844 -2.058594 6.3125 -0.527344 6.3125 C 3.726562 6.3125 9.257812 1.808594 11.84375 -1.835938 C 11.875 -1.890625 11.929688 -1.917969 12.011719 -1.972656 C 15.292969 -3.058594 19.351562 -4.226562 23.578125 -5.476562 C 27.945312 -6.757812 32.449219 -8.0625 36.257812 -9.34375 C 36.675781 -9.453125 36.953125 -9.84375 36.953125 -10.289062 C 36.953125 -10.84375 36.507812 -11.289062 35.953125 -11.289062 Z M -0.140625 4.308594 C -0.417969 4.308594 -0.554688 4.226562 -0.554688 4.117188 C -0.554688 3.976562 -0.417969 3.808594 -0.195312 3.671875 C 1.308594 2.613281 4.78125 0.835938 8.34375 -0.640625 C 5.394531 2.335938 1.917969 4.308594 -0.140625 4.308594 Z M -0.140625 4.308594 "/></g></g></g><g clip-path="url(#id7)"><g fill="#212121" fill-opacity="1"><g transform="translate(128.998086, 98.187069)"><g><path d="M 37.675781 -11.148438 C 37.453125 -11.148438 37.261719 -11.066406 37.066406 -10.929688 C 31.421875 -6.921875 23.914062 -1.972656 13.988281 3.894531 C 19.382812 -3.921875 22.773438 -11.011719 22.773438 -12.984375 C 22.773438 -14.179688 22.132812 -14.902344 21.078125 -14.902344 C 20.105469 -14.902344 18.65625 -13.957031 13.234375 -9.871094 C 7.925781 -5.839844 1.472656 -0.972656 -1.140625 -0.972656 C -1.53125 -0.972656 -1.667969 -1.085938 -1.667969 -1.445312 C -1.667969 -3.085938 3.835938 -10.398438 7.507812 -13.484375 C 7.730469 -13.707031 7.839844 -13.957031 7.839844 -14.238281 C 7.839844 -14.765625 7.367188 -15.238281 6.839844 -15.238281 C 6.589844 -15.238281 6.367188 -15.15625 6.199219 -15.015625 C 2.808594 -12.152344 -3.671875 -4.085938 -3.671875 -1.277344 C -3.671875 0.109375 -2.667969 1.027344 -1.140625 1.027344 C 2.140625 1.027344 9.121094 -4.253906 14.460938 -8.257812 C 17.90625 -10.871094 19.546875 -12.152344 20.214844 -12.511719 C 20.464844 -12.652344 20.769531 -12.652344 20.6875 -12.261719 C 19.769531 -8.648438 13.707031 1.140625 9.675781 6.449219 L 8.816406 6.980469 C 2.476562 10.734375 -4.226562 14.710938 -10.707031 18.6875 C -35.453125 33.921875 -46.046875 42.878906 -46.046875 48.632812 C -46.046875 50.496094 -44.710938 51.71875 -42.738281 51.71875 C -34.203125 51.71875 -10.621094 32.449219 5.617188 14.515625 C 7.535156 12.429688 9.371094 10.203125 11.011719 8.007812 C 22.71875 1.054688 32.8125 -5.726562 38.289062 -9.371094 C 38.511719 -9.507812 38.679688 -9.84375 38.679688 -10.148438 C 38.679688 -10.675781 38.207031 -11.148438 37.675781 -11.148438 Z M 4.171875 13.179688 C -13.292969 32.394531 -35.535156 49.71875 -42.738281 49.71875 C -43.628906 49.71875 -44.046875 49.355469 -44.046875 48.632812 C -44.046875 43.851562 -32.949219 34.703125 -9.648438 20.410156 C -4.449219 17.183594 0.917969 14.015625 6.144531 10.898438 C 5.503906 11.652344 4.839844 12.429688 4.171875 13.179688 Z M 4.171875 13.179688 "/></g></g></g></g><g fill="#212121" fill-opacity="1"><g transform="translate(164.031981, 98.187069)"><g><path d="M 36.453125 -11.289062 C 36.289062 -11.289062 36.09375 -11.234375 35.925781 -11.121094 C 30.363281 -7.703125 23.078125 -6.285156 16.878906 -5.367188 C 18.351562 -7.3125 19.160156 -9.230469 19.160156 -10.816406 C 19.160156 -12.375 18.214844 -13.320312 16.683594 -13.320312 C 14.402344 -13.320312 10.59375 -11.316406 5.0625 -7.203125 C 3.140625 -5.757812 1.363281 -4.253906 -0.109375 -2.976562 C -1.167969 -2.03125 -1.25 -2.53125 -0.695312 -3.421875 C 0.363281 -5.171875 1.835938 -7.285156 3.671875 -9.789062 C 29.78125 -26.75 55.085938 -55.390625 55.085938 -61.867188 C 55.085938 -63.34375 54.390625 -64.175781 52.636719 -64.175781 C 47.019531 -64.175781 16.238281 -30.363281 2.222656 -11.207031 L 2.308594 -11.289062 C 2.253906 -11.234375 2.195312 -11.179688 2.167969 -11.09375 C -2.363281 -4.894531 -4.726562 -0.75 -4.726562 1 C -4.726562 1.722656 -4.171875 2.28125 -3.449219 2.28125 C -2.917969 2.28125 -2.253906 1.667969 -1.585938 1.027344 L -1.167969 0.667969 C 0.472656 -0.835938 3.167969 -3.28125 6.285156 -5.589844 C 11.316406 -9.34375 14.820312 -11.402344 16.601562 -11.402344 C 17.015625 -11.402344 17.15625 -11.179688 17.15625 -10.816406 C 17.15625 -9.289062 15.933594 -7.0625 13.929688 -4.976562 L 13.261719 -4.894531 C 7.0625 -4.058594 3.808594 -3.558594 3.808594 -1.390625 C 3.808594 0.0820312 5.003906 1.140625 6.703125 1.140625 C 9.035156 1.140625 12.152344 -0.472656 14.820312 -3.058594 C 21.464844 -3.949219 30.363281 -5.339844 36.953125 -9.425781 C 37.261719 -9.59375 37.453125 -9.953125 37.453125 -10.289062 C 37.453125 -10.84375 37.011719 -11.289062 36.453125 -11.289062 Z M 52.636719 -62.175781 C 52.972656 -62.175781 53.082031 -62.007812 53.082031 -61.675781 C 53.082031 -56.53125 31.476562 -31.699219 7.453125 -14.765625 C 22.300781 -33.757812 48.464844 -62.175781 52.636719 -62.175781 Z M 5.8125 -1.25 C 5.8125 -1.640625 7.953125 -2.085938 11.011719 -2.53125 C 9.398438 -1.445312 7.898438 -0.863281 6.703125 -0.863281 C 6.117188 -0.863281 5.8125 -1.085938 5.8125 -1.25 Z M 5.8125 -1.25 "/></g></g></g><g fill="#212121" fill-opacity="1"><g transform="translate(197.620031, 98.187069)"><g><path d="M 28.695312 -11.289062 C 28.472656 -11.289062 28.277344 -11.234375 28.113281 -11.09375 C 19.464844 -4.78125 7.8125 -1.363281 4.199219 -1.363281 C 1.390625 -1.363281 0 -2.113281 0 -3.503906 C 0 -4.867188 1 -6.785156 2.667969 -8.621094 C 3.503906 -8.257812 4.421875 -8.121094 5.757812 -8.121094 C 8.3125 -8.121094 11.261719 -10.175781 11.261719 -12.011719 C 11.261719 -13.347656 10.234375 -14.238281 8.675781 -14.238281 C 4.335938 -14.238281 -2.003906 -7.871094 -2.003906 -3.503906 C -2.003906 -0.863281 0.25 0.640625 4.199219 0.640625 C 8.089844 0.640625 20.355469 -2.949219 29.28125 -9.480469 C 29.53125 -9.648438 29.695312 -9.984375 29.695312 -10.289062 C 29.695312 -10.84375 29.253906 -11.289062 28.695312 -11.289062 Z M 9.257812 -12.011719 C 9.257812 -11.402344 7.839844 -10.121094 5.757812 -10.121094 C 5.171875 -10.121094 4.726562 -10.148438 4.335938 -10.203125 C 5.921875 -11.484375 7.507812 -12.234375 8.675781 -12.234375 C 9.175781 -12.234375 9.257812 -12.152344 9.257812 -12.011719 Z M 9.257812 -12.011719 "/></g></g></g><g fill="#212121" fill-opacity="1"><g transform="translate(223.478372, 98.187069)"><g><path d="M 28.695312 -11.289062 C 28.472656 -11.289062 28.277344 -11.234375 28.113281 -11.09375 C 19.464844 -4.78125 7.8125 -1.363281 4.199219 -1.363281 C 1.390625 -1.363281 0 -2.113281 0 -3.503906 C 0 -4.867188 1 -6.785156 2.667969 -8.621094 C 3.503906 -8.257812 4.421875 -8.121094 5.757812 -8.121094 C 8.3125 -8.121094 11.261719 -10.175781 11.261719 -12.011719 C 11.261719 -13.347656 10.234375 -14.238281 8.675781 -14.238281 C 4.335938 -14.238281 -2.003906 -7.871094 -2.003906 -3.503906 C -2.003906 -0.863281 0.25 0.640625 4.199219 0.640625 C 8.089844 0.640625 20.355469 -2.949219 29.28125 -9.480469 C 29.53125 -9.648438 29.695312 -9.984375 29.695312 -10.289062 C 29.695312 -10.84375 29.253906 -11.289062 28.695312 -11.289062 Z M 9.257812 -12.011719 C 9.257812 -11.402344 7.839844 -10.121094 5.757812 -10.121094 C 5.171875 -10.121094 4.726562 -10.148438 4.335938 -10.203125 C 5.921875 -11.484375 7.507812 -12.234375 8.675781 -12.234375 C 9.175781 -12.234375 9.257812 -12.152344 9.257812 -12.011719 Z M 9.257812 -12.011719 "/></g></g></g></svg>