<svg xmlns="http://www.w3.org/2000/svg" xmlns:xlink="http://www.w3.org/1999/xlink" width="1080" zoomAndPan="magnify" viewBox="0 0 810 809.999993" height="1080" preserveAspectRatio="xMidYMid meet" version="1.0"><defs><g/><clipPath id="040286c200"><path d="M 314 324 L 518.542969 324 L 518.542969 648 L 314 648 Z M 314 324 " clip-rule="nonzero"/></clipPath></defs><g clip-path="url(#040286c200)"><path fill="#bdbaba" d="M 416.152344 323.996094 C 399.777344 323.996094 386.820312 337.378906 385.621094 353.878906 L 362.59375 353.878906 C 359.496094 353.878906 356.660156 354.824219 354.277344 356.671875 C 353.082031 357.597656 351.964844 358.800781 351.253906 360.464844 C 350.539062 362.125 350.390625 364.332031 351.085938 366.234375 L 353.058594 371.605469 L 329.121094 371.605469 C 320.722656 371.605469 314.015625 378.734375 314.015625 387.1875 L 314.015625 632.40625 C 314.015625 640.855469 320.722656 647.988281 329.121094 647.988281 L 503.179688 647.988281 C 511.582031 647.988281 518.304688 640.855469 518.304688 632.40625 L 518.304688 387.1875 C 518.304688 378.734375 511.582031 371.605469 503.179688 371.605469 L 479.257812 371.605469 L 481.234375 366.234375 C 481.929688 364.332031 481.777344 362.125 481.066406 360.464844 C 480.351562 358.800781 479.238281 357.597656 478.042969 356.671875 C 475.65625 354.824219 472.824219 353.878906 469.726562 353.878906 L 446.699219 353.878906 C 445.5 337.378906 432.527344 323.996094 416.152344 323.996094 Z M 416.152344 333.558594 C 427.945312 333.554688 437.605469 343.523438 437.601562 356.191406 C 437.597656 356.863281 437.5625 357.542969 437.5 358.21875 C 437.382812 359.554688 437.828125 360.878906 438.730469 361.867188 C 439.632812 362.859375 440.910156 363.421875 442.25 363.421875 L 469.726562 363.421875 C 470.40625 363.421875 471.300781 363.808594 471.851562 364.121094 L 468.347656 373.660156 C 467.886719 374.328125 467.605469 375.101562 467.523438 375.90625 L 460.761719 394.320312 C 460.25 395.710938 459.714844 396.769531 459.449219 397.09375 C 459.4375 397.109375 459.4375 397.117188 459.425781 397.128906 L 372.894531 397.128906 C 372.886719 397.117188 372.882812 397.109375 372.871094 397.09375 C 372.605469 396.769531 372.050781 395.710938 371.542969 394.320312 L 364.777344 375.871094 C 364.691406 375.089844 364.417969 374.34375 363.980469 373.699219 L 360.46875 364.121094 C 361.023438 363.8125 361.914062 363.421875 362.59375 363.421875 L 390.070312 363.421875 C 391.410156 363.421875 392.691406 362.855469 393.597656 361.863281 C 394.5 360.871094 394.945312 359.539062 394.816406 358.203125 C 394.753906 357.507812 394.710938 356.835938 394.703125 356.191406 C 394.699219 343.523438 404.359375 333.554688 416.152344 333.558594 Z M 416.152344 343.96875 C 408.765625 343.96875 402.886719 350.257812 402.886719 357.636719 C 402.886719 365.015625 408.765625 371.289062 416.152344 371.289062 C 423.535156 371.289062 429.417969 365.015625 429.417969 357.636719 C 429.417969 350.257812 423.535156 343.96875 416.152344 343.96875 Z M 416.152344 353.511719 C 418.160156 353.511719 419.886719 355.203125 419.886719 357.636719 C 419.886719 360.070312 418.160156 361.742188 416.152344 361.742188 C 414.144531 361.742188 412.417969 360.070312 412.417969 357.636719 C 412.417969 355.203125 414.144531 353.511719 416.152344 353.511719 Z M 329.121094 381.148438 L 356.554688 381.148438 L 362.59375 397.613281 C 363.214844 399.3125 363.953125 401.230469 365.464844 403.097656 C 366.976562 404.964844 369.761719 406.671875 372.769531 406.671875 L 459.550781 406.671875 C 462.558594 406.671875 465.34375 404.964844 466.855469 403.097656 C 468.363281 401.230469 469.085938 399.3125 469.710938 397.613281 L 475.753906 381.148438 L 503.179688 381.148438 C 506.25 381.148438 508.773438 383.648438 508.773438 387.1875 L 508.773438 632.40625 C 508.773438 635.945312 506.25 638.441406 503.179688 638.441406 L 329.121094 638.441406 C 326.054688 638.441406 323.542969 635.945312 323.542969 632.40625 L 323.542969 387.1875 C 323.542969 383.648438 326.054688 381.148438 329.121094 381.148438 Z M 376.785156 433.707031 C 375.496094 433.738281 374.273438 434.292969 373.402344 435.242188 L 361.363281 446.964844 L 355.804688 441.578125 C 354.601562 440.28125 352.789062 439.757812 351.082031 440.210938 C 349.378906 440.664062 348.0625 442.027344 347.664062 443.746094 C 347.265625 445.46875 347.847656 447.269531 349.175781 448.429688 L 358.058594 457.042969 C 358.917969 457.875 360.054688 458.355469 361.25 458.390625 C 362.535156 458.425781 363.777344 457.941406 364.699219 457.042969 L 380.042969 442.074219 C 381.554688 440.753906 382.078125 438.621094 381.347656 436.746094 C 380.617188 434.871094 378.792969 433.65625 376.785156 433.707031 Z M 396.238281 448.84375 C 394.503906 448.804688 392.882812 449.710938 392.011719 451.214844 C 391.136719 452.714844 391.144531 454.578125 392.039062 456.066406 C 392.929688 457.5625 394.558594 458.449219 396.296875 458.390625 L 479.804688 458.390625 C 481.546875 458.449219 483.183594 457.554688 484.070312 456.050781 C 484.960938 454.550781 484.960938 452.683594 484.070312 451.183594 C 483.183594 449.679688 481.546875 448.785156 479.804688 448.84375 L 396.296875 448.84375 C 396.277344 448.84375 396.257812 448.84375 396.238281 448.84375 Z M 376.832031 480.285156 C 375.546875 480.273438 374.308594 480.785156 373.402344 481.703125 L 361.363281 493.441406 L 355.804688 488.039062 C 354.585938 486.816406 352.800781 486.34375 351.140625 486.808594 C 349.480469 487.273438 348.199219 488.601562 347.792969 490.28125 C 347.386719 491.960938 347.914062 493.726562 349.175781 494.90625 L 358.058594 503.519531 C 358.917969 504.351562 360.054688 504.832031 361.25 504.867188 C 362.535156 504.902344 363.777344 504.414062 364.699219 503.519531 L 380.042969 488.554688 C 381.46875 487.222656 381.941406 485.152344 381.234375 483.332031 C 380.527344 481.511719 378.785156 480.304688 376.832031 480.285156 Z M 396.242188 495.320312 C 394.507812 495.277344 392.886719 496.183594 392.011719 497.6875 C 391.136719 499.191406 391.148438 501.050781 392.039062 502.542969 C 392.929688 504.035156 394.558594 504.925781 396.296875 504.867188 L 479.804688 504.867188 C 481.546875 504.925781 483.183594 504.03125 484.070312 502.527344 C 484.960938 501.027344 484.960938 499.160156 484.070312 497.65625 C 483.183594 496.15625 481.546875 495.261719 479.804688 495.320312 L 396.296875 495.320312 C 396.277344 495.320312 396.261719 495.320312 396.242188 495.320312 Z M 376.832031 526.761719 C 375.546875 526.75 374.308594 527.261719 373.402344 528.179688 L 361.363281 539.902344 L 355.804688 534.515625 C 354.585938 533.292969 352.804688 532.824219 351.140625 533.289062 C 349.484375 533.753906 348.203125 535.082031 347.796875 536.757812 C 347.390625 538.4375 347.917969 540.207031 349.175781 541.382812 L 358.058594 549.996094 C 358.917969 550.828125 360.054688 551.308594 361.25 551.34375 C 362.535156 551.375 363.78125 550.882812 364.699219 549.980469 L 380.042969 535.03125 C 381.46875 533.699219 381.941406 531.628906 381.234375 529.808594 C 380.527344 527.988281 378.785156 526.78125 376.832031 526.761719 Z M 396.238281 541.796875 C 394.503906 541.753906 392.882812 542.664062 392.011719 544.164062 C 391.136719 545.667969 391.144531 547.53125 392.039062 549.023438 C 392.929688 550.515625 394.558594 551.402344 396.296875 551.34375 L 479.804688 551.34375 C 481.546875 551.402344 483.183594 550.507812 484.070312 549.003906 C 484.960938 547.503906 484.960938 545.636719 484.070312 544.132812 C 483.183594 542.632812 481.546875 541.738281 479.804688 541.796875 L 396.296875 541.796875 C 396.277344 541.796875 396.257812 541.796875 396.238281 541.796875 Z M 376.832031 573.238281 C 375.546875 573.226562 374.308594 573.738281 373.402344 574.65625 L 361.363281 586.378906 L 355.804688 580.992188 C 354.585938 579.765625 352.800781 579.296875 351.140625 579.761719 C 349.480469 580.226562 348.199219 581.554688 347.792969 583.234375 C 347.386719 584.914062 347.914062 586.683594 349.175781 587.859375 L 358.058594 596.472656 C 358.921875 597.300781 360.058594 597.773438 361.25 597.800781 C 362.535156 597.839844 363.777344 597.351562 364.699219 596.457031 L 380.042969 581.507812 C 381.46875 580.175781 381.941406 578.105469 381.234375 576.285156 C 380.527344 574.464844 378.785156 573.257812 376.832031 573.238281 Z M 396.296875 588.257812 C 394.585938 588.25 393 589.160156 392.144531 590.640625 C 391.285156 592.125 391.285156 593.953125 392.144531 595.4375 C 393 596.917969 394.585938 597.828125 396.296875 597.820312 L 479.804688 597.820312 C 481.515625 597.828125 483.097656 596.917969 483.957031 595.4375 C 484.8125 593.953125 484.8125 592.125 483.957031 590.640625 C 483.097656 589.160156 481.515625 588.25 479.804688 588.257812 Z M 396.296875 588.257812 " fill-opacity="1" fill-rule="nonzero"/></g><g fill="#bdbaba" fill-opacity="1"><g transform="translate(102.933833, 426.633764)"><g><path d="M -3.71875 -21.9375 L 7.09375 -17.578125 L 4.90625 -12.140625 L -5.71875 -16.421875 L -32.4375 -13.140625 L -30.203125 -18.65625 L -10.671875 -21.5625 L -22.796875 -37.015625 L -20.5625 -42.578125 Z M -3.71875 -21.9375 "/></g></g></g><g fill="#bdbaba" fill-opacity="1"><g transform="translate(114.085348, 398.799087)"><g><path d="M -16.625 -26.203125 C -14.75 -29.847656 -12.117188 -32.238281 -8.734375 -33.375 C -5.347656 -34.519531 -1.863281 -34.164062 1.71875 -32.3125 C 5.269531 -30.476562 7.566406 -27.847656 8.609375 -24.421875 C 9.660156 -20.992188 9.25 -17.457031 7.375 -13.8125 C 5.46875 -10.144531 2.816406 -7.742188 -0.578125 -6.609375 C -3.984375 -5.472656 -7.460938 -5.820312 -11.015625 -7.65625 C -14.597656 -9.507812 -16.90625 -12.144531 -17.9375 -15.5625 C -18.96875 -18.988281 -18.53125 -22.535156 -16.625 -26.203125 Z M -12.21875 -23.921875 C -13.320312 -21.785156 -13.507812 -19.675781 -12.78125 -17.59375 C -12.0625 -15.519531 -10.582031 -13.90625 -8.34375 -12.75 C -6.0625 -11.570312 -3.859375 -11.285156 -1.734375 -11.890625 C 0.390625 -12.503906 2 -13.878906 3.09375 -16.015625 C 4.195312 -18.148438 4.378906 -20.25 3.640625 -22.3125 C 2.898438 -24.382812 1.390625 -26.007812 -0.890625 -27.1875 C -3.128906 -28.34375 -5.304688 -28.613281 -7.421875 -28 C -9.535156 -27.382812 -11.132812 -26.023438 -12.21875 -23.921875 Z M -12.21875 -23.921875 "/></g></g></g><g fill="#bdbaba" fill-opacity="1"><g transform="translate(127.443621, 372.646011)"><g><path d="M -7.03125 -38.265625 L 15.34375 -23.90625 L 12.234375 -19.0625 L 7.859375 -21.875 C 9.890625 -18.507812 9.695312 -14.875 7.28125 -10.96875 C 5.632812 -8.40625 3.570312 -6.890625 1.09375 -6.421875 C -1.375 -5.953125 -3.941406 -6.570312 -6.609375 -8.28125 L -20.53125 -17.21875 L -17.421875 -22.0625 L -4.859375 -14 C -3.171875 -12.914062 -1.546875 -12.523438 0.015625 -12.828125 C 1.578125 -13.140625 2.875 -14.101562 3.90625 -15.71875 C 5.09375 -17.613281 5.382812 -19.535156 4.78125 -21.484375 C 4.1875 -23.429688 2.882812 -25.054688 0.875 -26.359375 L -10.140625 -33.421875 Z M -7.03125 -38.265625 "/></g></g></g><g fill="#bdbaba" fill-opacity="1"><g transform="translate(144.58248, 346.47371)"><g/></g></g><g fill="#bdbaba" fill-opacity="1"><g transform="translate(151.107241, 336.973534)"><g><path d="M -8.984375 -46.59375 L 19.21875 -22.5 L 15.484375 -18.125 L 12.03125 -21.078125 C 13.1875 -17.515625 12.378906 -14.113281 9.609375 -10.875 C 7.140625 -7.976562 4.1875 -6.453125 0.75 -6.296875 C -2.6875 -6.140625 -5.953125 -7.382812 -9.046875 -10.03125 C -12.085938 -12.632812 -13.789062 -15.628906 -14.15625 -19.015625 C -14.53125 -22.398438 -13.492188 -25.523438 -11.046875 -28.390625 C -8.273438 -31.628906 -5.003906 -32.972656 -1.234375 -32.421875 L -12.71875 -42.21875 Z M 1.078125 -11.984375 C 3.296875 -12.085938 5.179688 -13.050781 6.734375 -14.875 C 8.296875 -16.707031 8.953125 -18.722656 8.703125 -20.921875 C 8.453125 -23.128906 7.367188 -25.054688 5.453125 -26.703125 C 3.503906 -28.367188 1.414062 -29.15625 -0.8125 -29.0625 C -3.039062 -28.976562 -4.929688 -28.019531 -6.484375 -26.1875 C -8.046875 -24.363281 -8.695312 -22.34375 -8.4375 -20.125 C -8.175781 -17.914062 -7.082031 -15.96875 -5.15625 -14.28125 C -3.21875 -12.65625 -1.140625 -11.890625 1.078125 -11.984375 Z M 1.078125 -11.984375 "/></g></g></g><g fill="#bdbaba" fill-opacity="1"><g transform="translate(171.985154, 312.500766)"><g><path d="M -7.34375 -30.15625 C -4.394531 -33 -1.132812 -34.414062 2.4375 -34.40625 C 6.007812 -34.40625 9.195312 -32.953125 12 -30.046875 C 14.78125 -27.171875 16.113281 -23.941406 16 -20.359375 C 15.882812 -16.785156 14.351562 -13.578125 11.40625 -10.734375 C 8.425781 -7.859375 5.144531 -6.425781 1.5625 -6.4375 C -2.007812 -6.457031 -5.1875 -7.90625 -7.96875 -10.78125 C -10.769531 -13.6875 -12.109375 -16.921875 -11.984375 -20.484375 C -11.867188 -24.054688 -10.320312 -27.28125 -7.34375 -30.15625 Z M -3.90625 -26.59375 C -5.632812 -24.914062 -6.488281 -22.972656 -6.46875 -20.765625 C -6.445312 -18.566406 -5.5625 -16.554688 -3.8125 -14.734375 C -2.03125 -12.890625 -0.0351562 -11.914062 2.171875 -11.8125 C 4.378906 -11.71875 6.347656 -12.503906 8.078125 -14.171875 C 9.804688 -15.835938 10.648438 -17.765625 10.609375 -19.953125 C 10.578125 -22.148438 9.671875 -24.171875 7.890625 -26.015625 C 6.140625 -27.835938 4.160156 -28.796875 1.953125 -28.890625 C -0.253906 -28.992188 -2.207031 -28.226562 -3.90625 -26.59375 Z M -3.90625 -26.59375 "/></g></g></g><g fill="#bdbaba" fill-opacity="1"><g transform="translate(193.015112, 292.024107)"><g><path d="M -1.203125 -33.296875 C 1.222656 -35.234375 3.6875 -36.035156 6.1875 -35.703125 C 8.6875 -35.367188 10.929688 -33.945312 12.921875 -31.4375 L 23.234375 -18.5 L 18.734375 -14.921875 L 9.421875 -26.625 C 8.171875 -28.1875 6.742188 -29.0625 5.140625 -29.25 C 3.546875 -29.445312 1.960938 -28.925781 0.390625 -27.6875 C -1.253906 -26.320312 -2.1875 -24.695312 -2.40625 -22.8125 C -2.632812 -20.925781 -2.160156 -19.09375 -0.984375 -17.3125 L 7.828125 -6.234375 L 3.328125 -2.640625 L -13.234375 -23.4375 L -8.734375 -27.03125 L -5.5625 -23.046875 C -6.351562 -26.929688 -4.898438 -30.347656 -1.203125 -33.296875 Z M -1.203125 -33.296875 "/></g></g></g><g fill="#bdbaba" fill-opacity="1"><g transform="translate(218.12434, 272.440962)"><g><path d="M -6.890625 -22.859375 L -10.5 -20.34375 L -17.53125 -30.4375 L -13.921875 -32.953125 Z M -6.890625 -22.859375 "/></g></g></g><g fill="#bdbaba" fill-opacity="1"><g transform="translate(225.832155, 266.910296)"><g><path d="M 11.84375 -14.6875 L 15.40625 -11.734375 C 14.25 -9.460938 12.753906 -7.75 10.921875 -6.59375 C 9.085938 -5.4375 7.226562 -5.035156 5.34375 -5.390625 C 3.46875 -5.742188 1.847656 -7.003906 0.484375 -9.171875 L -6.875 -20.84375 L -10.046875 -18.84375 L -12.34375 -22.46875 L -9.171875 -24.46875 L -13.078125 -30.65625 L -8.265625 -33.703125 L -4.359375 -27.515625 L 2.28125 -31.703125 L 4.578125 -28.078125 L -2.0625 -23.890625 L 4.734375 -13.109375 C 5.441406 -11.972656 6.132812 -11.304688 6.8125 -11.109375 C 7.5 -10.910156 8.25 -11.066406 9.0625 -11.578125 C 9.96875 -12.148438 10.894531 -13.1875 11.84375 -14.6875 Z M 11.84375 -14.6875 "/></g></g></g><g fill="#bdbaba" fill-opacity="1"><g transform="translate(242.235628, 256.634832)"><g/></g></g><g fill="#bdbaba" fill-opacity="1"><g transform="translate(252.085493, 250.615574)"><g><path d="M 6.578125 -32.828125 C 9.378906 -34.171875 11.957031 -34.398438 14.3125 -33.515625 C 16.675781 -32.640625 18.546875 -30.757812 19.921875 -27.875 L 27.0625 -12.9375 L 21.875 -10.453125 L 15.421875 -23.9375 C 14.566406 -25.75 13.378906 -26.925781 11.859375 -27.46875 C 10.335938 -28.019531 8.671875 -27.863281 6.859375 -27 C 4.773438 -25.96875 3.453125 -24.457031 2.890625 -22.46875 C 2.328125 -20.488281 2.566406 -18.410156 3.609375 -16.234375 L 9.25 -4.421875 L 4.0625 -1.9375 L -11.921875 -35.40625 L -6.734375 -37.890625 L 0.015625 -23.734375 C 0.128906 -27.765625 2.316406 -30.796875 6.578125 -32.828125 Z M 6.578125 -32.828125 "/></g></g></g><g fill="#bdbaba" fill-opacity="1"><g transform="translate(280.595755, 237.006082)"><g><path d="M 18.953125 -6.984375 L 17.828125 -10.03125 C 16.847656 -7.1875 14.503906 -5.082031 10.796875 -3.71875 C 8.140625 -2.726562 5.738281 -2.664062 3.59375 -3.53125 C 1.457031 -4.40625 -0.0195312 -5.960938 -0.84375 -8.203125 C -1.6875 -10.492188 -1.523438 -12.617188 -0.359375 -14.578125 C 0.796875 -16.535156 2.851562 -18.078125 5.8125 -19.203125 L 13.375 -21.984375 L 13.09375 -22.734375 C 12.507812 -24.328125 11.546875 -25.375 10.203125 -25.875 C 8.867188 -26.375 7.226562 -26.265625 5.28125 -25.546875 C 2.882812 -24.660156 0.738281 -22.914062 -1.15625 -20.3125 L -4.734375 -23.25 C -3.234375 -25.070312 -1.8125 -26.503906 -0.46875 -27.546875 C 0.863281 -28.597656 2.640625 -29.53125 4.859375 -30.34375 C 8.046875 -31.519531 10.796875 -31.65625 13.109375 -30.75 C 15.429688 -29.851562 17.117188 -28.035156 18.171875 -25.296875 L 24.25 -8.9375 Z M 10.328125 -8.390625 C 12.242188 -9.097656 13.703125 -10.144531 14.703125 -11.53125 C 15.703125 -12.914062 16.023438 -14.316406 15.671875 -15.734375 L 14.828125 -18.03125 L 8.078125 -15.546875 C 6.285156 -14.878906 5.070312 -14.140625 4.4375 -13.328125 C 3.800781 -12.515625 3.703125 -11.507812 4.140625 -10.3125 C 4.554688 -9.195312 5.316406 -8.457031 6.421875 -8.09375 C 7.535156 -7.738281 8.835938 -7.835938 10.328125 -8.390625 Z M 10.328125 -8.390625 "/></g></g></g><g fill="#bdbaba" fill-opacity="1"><g transform="translate(306.5389, 227.436691)"><g><path d="M 15.703125 -4.375 L 9.96875 -2.765625 L -7.078125 -25.640625 L -1.296875 -27.25 L 11.4375 -9.0625 L 12.859375 -31.1875 L 18.40625 -32.734375 Z M 15.703125 -4.375 "/></g></g></g><g fill="#bdbaba" fill-opacity="1"><g transform="translate(330.207931, 220.715085)"><g><path d="M 9.890625 -29.171875 C 14.367188 -30.035156 17.875 -29.3125 20.40625 -27 C 22.945312 -24.6875 24.5 -21.050781 25.0625 -16.09375 L 5.3125 -12.3125 C 6.175781 -10.375 7.4375 -8.960938 9.09375 -8.078125 C 10.757812 -7.191406 12.617188 -6.945312 14.671875 -7.34375 C 17.617188 -7.90625 19.878906 -9.390625 21.453125 -11.796875 L 25.0625 -9.171875 C 22.945312 -5.710938 19.625 -3.550781 15.09375 -2.6875 C 11.070312 -1.914062 7.609375 -2.515625 4.703125 -4.484375 C 1.804688 -6.460938 -0.015625 -9.414062 -0.765625 -13.34375 C -1.523438 -17.269531 -0.914062 -20.691406 1.0625 -23.609375 C 3.050781 -26.535156 5.992188 -28.390625 9.890625 -29.171875 Z M 4.4375 -16.4375 L 19.375 -19.296875 C 18.863281 -21.367188 17.835938 -22.882812 16.296875 -23.84375 C 14.765625 -24.8125 12.9375 -25.09375 10.8125 -24.6875 C 8.738281 -24.289062 7.140625 -23.351562 6.015625 -21.875 C 4.890625 -20.40625 4.363281 -18.59375 4.4375 -16.4375 Z M 4.4375 -16.4375 "/></g></g></g><g fill="#bdbaba" fill-opacity="1"><g transform="translate(357.878542, 215.634477)"><g/></g></g><g fill="#bdbaba" fill-opacity="1"><g transform="translate(369.401168, 213.867103)"><g><path d="M 20.15625 -1.3125 L 19.953125 -4.5625 C 18.203125 -2.101562 15.347656 -0.742188 11.390625 -0.484375 C 8.566406 -0.304688 6.253906 -0.929688 4.453125 -2.359375 C 2.660156 -3.796875 1.6875 -5.710938 1.53125 -8.109375 C 1.375 -10.535156 2.128906 -12.519531 3.796875 -14.0625 C 5.460938 -15.613281 7.875 -16.507812 11.03125 -16.75 L 19.078125 -17.265625 L 19.015625 -18.0625 C 18.910156 -19.75 18.285156 -21.023438 17.140625 -21.890625 C 16.003906 -22.765625 14.398438 -23.132812 12.328125 -23 C 9.773438 -22.832031 7.222656 -21.765625 4.671875 -19.796875 L 2.078125 -23.640625 C 4.023438 -24.972656 5.785156 -25.945312 7.359375 -26.5625 C 8.941406 -27.175781 10.914062 -27.554688 13.28125 -27.703125 C 16.675781 -27.921875 19.359375 -27.269531 21.328125 -25.75 C 23.304688 -24.226562 24.40625 -22.007812 24.625 -19.09375 L 25.796875 -1.671875 Z M 12.28125 -5.09375 C 14.320312 -5.226562 16.015625 -5.816406 17.359375 -6.859375 C 18.710938 -7.898438 19.425781 -9.15625 19.5 -10.625 L 19.34375 -13.0625 L 12.15625 -12.609375 C 10.257812 -12.484375 8.890625 -12.117188 8.046875 -11.515625 C 7.203125 -10.921875 6.820312 -9.988281 6.90625 -8.71875 C 6.976562 -7.519531 7.492188 -6.585938 8.453125 -5.921875 C 9.421875 -5.265625 10.695312 -4.988281 12.28125 -5.09375 Z M 12.28125 -5.09375 "/></g></g></g><g fill="#bdbaba" fill-opacity="1"><g transform="translate(396.792181, 211.916638)"><g><path d="M 20.53125 -26.234375 C 23.625 -26.148438 26.019531 -25.175781 27.71875 -23.3125 C 29.414062 -21.445312 30.222656 -18.921875 30.140625 -15.734375 L 29.6875 0.8125 L 23.9375 0.65625 L 24.34375 -14.296875 C 24.394531 -16.296875 23.867188 -17.882812 22.765625 -19.0625 C 21.660156 -20.238281 20.113281 -20.851562 18.125 -20.90625 C 15.988281 -20.925781 14.226562 -20.289062 12.84375 -19 C 11.457031 -17.707031 10.640625 -16.003906 10.390625 -13.890625 L 10 0.265625 L 4.25 0.109375 L 4.96875 -26.46875 L 10.71875 -26.3125 L 10.578125 -21.21875 C 12.484375 -24.695312 15.800781 -26.367188 20.53125 -26.234375 Z M 20.53125 -26.234375 "/></g></g></g><g fill="#bdbaba" fill-opacity="1"><g transform="translate(428.156391, 212.839131)"><g><path d="M 29.6875 -23.34375 L 14.1875 5.3125 C 12.082031 9.300781 8.972656 11.0625 4.859375 10.59375 C 2.578125 10.320312 0.628906 9.335938 -0.984375 7.640625 L 1.953125 3.5 C 3.054688 4.5 4.15625 5.0625 5.25 5.1875 C 7.03125 5.394531 8.476562 4.566406 9.59375 2.703125 L 10.71875 0.828125 L 2.8125 -26.453125 L 8.734375 -25.765625 L 14.296875 -4.828125 L 23.96875 -24 Z M 29.6875 -23.34375 "/></g></g></g><g fill="#bdbaba" fill-opacity="1"><g transform="translate(453.337786, 215.91978)"><g/></g></g><g fill="#bdbaba" fill-opacity="1"><g transform="translate(464.875912, 217.649839)"><g><path d="M 34.640625 -22.25 L 23.84375 -24.84375 L 16.921875 4.046875 L 11.1875 2.671875 L 18.109375 -26.21875 L 7.359375 -28.78125 L 8.59375 -33.921875 L 35.875 -27.390625 Z M 34.640625 -22.25 "/></g></g></g><g fill="#bdbaba" fill-opacity="1"><g transform="translate(491.331483, 223.852721)"><g><path d="M 23.375 -20.421875 C 27.25 -19.117188 30.007812 -16.878906 31.65625 -13.703125 C 33.300781 -10.535156 33.484375 -7.039062 32.203125 -3.21875 C 30.929688 0.570312 28.675781 3.242188 25.4375 4.796875 C 22.207031 6.347656 18.65625 6.472656 14.78125 5.171875 C 10.863281 3.847656 8.082031 1.597656 6.4375 -1.578125 C 4.800781 -4.765625 4.617188 -8.253906 5.890625 -12.046875 C 7.171875 -15.867188 9.425781 -18.550781 12.65625 -20.09375 C 15.882812 -21.632812 19.457031 -21.742188 23.375 -20.421875 Z M 21.796875 -15.71875 C 19.515625 -16.488281 17.398438 -16.351562 15.453125 -15.3125 C 13.503906 -14.28125 12.128906 -12.566406 11.328125 -10.171875 C 10.515625 -7.742188 10.570312 -5.53125 11.5 -3.53125 C 12.425781 -1.53125 14.023438 -0.148438 16.296875 0.609375 C 18.578125 1.378906 20.679688 1.242188 22.609375 0.203125 C 24.546875 -0.835938 25.921875 -2.570312 26.734375 -5 C 27.535156 -7.394531 27.472656 -9.59375 26.546875 -11.59375 C 25.617188 -13.59375 24.035156 -14.96875 21.796875 -15.71875 Z M 21.796875 -15.71875 "/></g></g></g><g fill="#bdbaba" fill-opacity="1"><g transform="translate(519.620948, 233.617511)"><g/></g></g><g fill="#bdbaba" fill-opacity="1"><g transform="translate(530.368012, 237.425564)"><g><path d="M 19.796875 -29.21875 L 32.625 -22.78125 C 37.300781 -20.4375 40.425781 -17.019531 42 -12.53125 C 43.570312 -8.050781 43.222656 -3.550781 40.953125 0.96875 C 38.679688 5.488281 35.269531 8.457031 30.71875 9.875 C 26.175781 11.289062 21.535156 10.804688 16.796875 8.421875 L 4.109375 2.0625 Z M 22.703125 -21.84375 L 11.765625 -0.03125 L 19.4375 3.828125 C 22.507812 5.367188 25.578125 5.628906 28.640625 4.609375 C 31.710938 3.585938 34.039062 1.5 35.625 -1.65625 C 37.207031 -4.8125 37.46875 -7.953125 36.40625 -11.078125 C 35.34375 -14.203125 33.257812 -16.539062 30.15625 -18.09375 Z M 22.703125 -21.84375 "/></g></g></g><g fill="#bdbaba" fill-opacity="1"><g transform="translate(563.113535, 253.95098)"><g><path d="M 27.625 -14.171875 C 31.070312 -11.960938 33.207031 -9.117188 34.03125 -5.640625 C 34.851562 -2.160156 34.179688 1.273438 32.015625 4.671875 C 29.859375 8.035156 27.023438 10.082031 23.515625 10.8125 C 20.015625 11.539062 16.539062 10.800781 13.09375 8.59375 C 9.601562 6.375 7.445312 3.515625 6.625 0.015625 C 5.800781 -3.472656 6.46875 -6.898438 8.625 -10.265625 C 10.789062 -13.660156 13.625 -15.710938 17.125 -16.421875 C 20.632812 -17.140625 24.132812 -16.390625 27.625 -14.171875 Z M 24.953125 -9.984375 C 22.921875 -11.273438 20.835938 -11.65625 18.703125 -11.125 C 16.566406 -10.601562 14.816406 -9.273438 13.453125 -7.140625 C 12.078125 -4.972656 11.59375 -2.804688 12 -0.640625 C 12.414062 1.523438 13.632812 3.253906 15.65625 4.546875 C 17.675781 5.835938 19.75 6.210938 21.875 5.671875 C 24.007812 5.128906 25.765625 3.773438 27.140625 1.609375 C 28.503906 -0.523438 28.976562 -2.671875 28.5625 -4.828125 C 28.144531 -6.992188 26.941406 -8.710938 24.953125 -9.984375 Z M 24.953125 -9.984375 "/></g></g></g><g fill="#bdbaba" fill-opacity="1"><g transform="translate(588.199956, 270.270584)"><g/></g></g><g fill="#bdbaba" fill-opacity="1"><g transform="translate(597.794206, 277.01861)"><g><path d="M 11.5 2.59375 L 23.171875 12.25 L 19.765625 16.359375 L 3.53125 2.9375 L 25.859375 -24.015625 L 30.421875 -20.25 Z M 11.5 2.59375 "/></g></g></g><g fill="#bdbaba" fill-opacity="1"><g transform="translate(617.319148, 293.38523)"><g><path d="M 28.515625 -23.609375 C 29.421875 -23.648438 30.226562 -23.335938 30.9375 -22.671875 C 31.644531 -22.015625 32.007812 -21.234375 32.03125 -20.328125 C 32.050781 -19.421875 31.707031 -18.59375 31 -17.84375 C 30.320312 -17.113281 29.523438 -16.722656 28.609375 -16.671875 C 27.703125 -16.628906 26.894531 -16.9375 26.1875 -17.59375 C 25.476562 -18.257812 25.113281 -19.046875 25.09375 -19.953125 C 25.082031 -20.867188 25.414062 -21.691406 26.09375 -22.421875 C 26.800781 -23.171875 27.609375 -23.566406 28.515625 -23.609375 Z M 7.265625 6.796875 L 3.109375 2.90625 L 21.265625 -16.515625 L 25.421875 -12.625 Z M 7.265625 6.796875 "/></g></g></g><g fill="#bdbaba" fill-opacity="1"><g transform="translate(626.984171, 302.20072)"><g><path d="M 27.828125 -9.75 C 30.359375 -7.09375 31.851562 -4.234375 32.3125 -1.171875 L 27.796875 0.25 C 27.171875 -2.65625 25.972656 -5.035156 24.203125 -6.890625 C 22.398438 -8.765625 20.859375 -9.09375 19.578125 -7.875 C 18.953125 -7.28125 18.769531 -6.4375 19.03125 -5.34375 C 19.289062 -4.25 19.765625 -3.070312 20.453125 -1.8125 C 21.140625 -0.550781 21.769531 0.753906 22.34375 2.109375 C 22.925781 3.472656 23.128906 4.90625 22.953125 6.40625 C 22.773438 7.914062 22.035156 9.289062 20.734375 10.53125 C 18.878906 12.3125 16.789062 12.960938 14.46875 12.484375 C 12.144531 12.003906 9.984375 10.71875 7.984375 8.625 C 6.597656 7.1875 5.476562 5.550781 4.625 3.71875 C 3.769531 1.882812 3.3125 0.0859375 3.25 -1.671875 L 7.625 -3.015625 C 7.6875 -1.503906 8.070312 0.0507812 8.78125 1.65625 C 9.488281 3.269531 10.363281 4.617188 11.40625 5.703125 C 12.300781 6.640625 13.191406 7.234375 14.078125 7.484375 C 14.972656 7.742188 15.769531 7.535156 16.46875 6.859375 C 17.1875 6.171875 17.425781 5.269531 17.1875 4.15625 C 16.957031 3.050781 16.5 1.875 15.8125 0.625 C 15.132812 -0.613281 14.503906 -1.894531 13.921875 -3.21875 C 13.335938 -4.550781 13.132812 -5.957031 13.3125 -7.4375 C 13.488281 -8.925781 14.21875 -10.285156 15.5 -11.515625 C 17.320312 -13.265625 19.351562 -13.90625 21.59375 -13.4375 C 23.832031 -12.976562 25.910156 -11.75 27.828125 -9.75 Z M 27.828125 -9.75 "/></g></g></g><g fill="#bdbaba" fill-opacity="1"><g transform="translate(642.321217, 318.243612)"><g><path d="M 16.15625 9.734375 L 13.703125 13.6875 C 11.304688 12.832031 9.410156 11.578125 8.015625 9.921875 C 6.617188 8.265625 5.96875 6.476562 6.0625 4.5625 C 6.15625 2.65625 7.1875 0.878906 9.15625 -0.765625 L 19.71875 -9.640625 L 17.3125 -12.515625 L 20.59375 -15.28125 L 23 -12.40625 L 28.609375 -17.109375 L 32.28125 -12.75 L 26.671875 -8.046875 L 31.71875 -2.046875 L 28.4375 0.71875 L 23.390625 -5.28125 L 13.625 2.921875 C 12.601562 3.773438 12.039062 4.550781 11.9375 5.25 C 11.832031 5.957031 12.085938 6.675781 12.703125 7.40625 C 13.390625 8.226562 14.539062 9.003906 16.15625 9.734375 Z M 16.15625 9.734375 "/></g></g></g><g fill="#bdbaba" fill-opacity="1"><g transform="translate(654.64537, 332.766974)"><g><path d="M 28.859375 -6.078125 C 31.023438 -3.117188 32.132812 -0.0859375 32.1875 3.015625 L 27.53125 3.84375 C 27.28125 0.863281 26.398438 -1.65625 24.890625 -3.71875 C 23.335938 -5.820312 21.847656 -6.347656 20.421875 -5.296875 C 19.722656 -4.785156 19.4375 -3.96875 19.5625 -2.84375 C 19.6875 -1.726562 20.003906 -0.5 20.515625 0.84375 C 21.023438 2.1875 21.476562 3.566406 21.875 4.984375 C 22.28125 6.398438 22.300781 7.84375 21.9375 9.3125 C 21.570312 10.78125 20.660156 12.050781 19.203125 13.125 C 17.128906 14.644531 14.972656 15.019531 12.734375 14.25 C 10.492188 13.476562 8.519531 11.925781 6.8125 9.59375 C 5.625 7.976562 4.722656 6.207031 4.109375 4.28125 C 3.492188 2.351562 3.269531 0.515625 3.4375 -1.234375 L 7.953125 -2 C 7.816406 -0.5 8 1.09375 8.5 2.78125 C 9 4.46875 9.691406 5.914062 10.578125 7.125 C 11.347656 8.164062 12.15625 8.867188 13 9.234375 C 13.851562 9.609375 14.671875 9.507812 15.453125 8.9375 C 16.253906 8.34375 16.609375 7.476562 16.515625 6.34375 C 16.429688 5.21875 16.128906 3.992188 15.609375 2.671875 C 15.085938 1.347656 14.625 -0.0078125 14.21875 -1.40625 C 13.820312 -2.800781 13.804688 -4.222656 14.171875 -5.671875 C 14.535156 -7.117188 15.429688 -8.363281 16.859375 -9.40625 C 18.890625 -10.90625 20.984375 -11.28125 23.140625 -10.53125 C 25.304688 -9.789062 27.210938 -8.304688 28.859375 -6.078125 Z M 28.859375 -6.078125 "/></g></g></g><g fill="#bdbaba" fill-opacity="1"><g transform="translate(667.829866, 350.891201)"><g/></g></g><g fill="#bdbaba" fill-opacity="1"><g transform="translate(674.45925, 360.572587)"><g><path d="M 36.421875 9.953125 L 4.15625 14.578125 C -0.289062 15.242188 -3.546875 13.785156 -5.609375 10.203125 C -6.753906 8.210938 -7.125 6.066406 -6.71875 3.765625 L -1.640625 3.65625 C -1.785156 5.132812 -1.585938 6.347656 -1.046875 7.296875 C -0.148438 8.847656 1.375 9.523438 3.53125 9.328125 L 5.71875 9.109375 L 22.921875 -13.484375 L 25.890625 -8.328125 L 12.40625 8.609375 L 33.546875 4.96875 Z M 36.421875 9.953125 "/></g></g></g><g fill="#bdbaba" fill-opacity="1"><g transform="translate(686.988587, 382.086547)"><g><path d="M 30.71875 2.34375 C 32.664062 6.476562 32.832031 10.054688 31.21875 13.078125 C 29.601562 16.109375 26.46875 18.519531 21.8125 20.3125 L 13.25 2.109375 C 11.582031 3.410156 10.523438 4.976562 10.078125 6.8125 C 9.640625 8.644531 9.863281 10.507812 10.75 12.40625 C 12.03125 15.113281 14.03125 16.929688 16.75 17.859375 L 15.109375 22.015625 C 11.222656 20.816406 8.300781 18.140625 6.34375 13.984375 C 4.601562 10.273438 4.328125 6.765625 5.515625 3.453125 C 6.710938 0.140625 9.117188 -2.363281 12.734375 -4.0625 C 16.359375 -5.769531 19.832031 -6.019531 23.15625 -4.8125 C 26.476562 -3.613281 29 -1.226562 30.71875 2.34375 Z M 17.015625 0.234375 L 23.484375 13.984375 C 25.367188 12.984375 26.585938 11.613281 27.140625 9.875 C 27.691406 8.144531 27.507812 6.300781 26.59375 4.34375 C 25.695312 2.4375 24.394531 1.125 22.6875 0.40625 C 20.976562 -0.3125 19.085938 -0.367188 17.015625 0.234375 Z M 17.015625 0.234375 "/></g></g></g><g fill="#bdbaba" fill-opacity="1"><g transform="translate(698.774634, 407.392857)"><g><path d="M 12.078125 14.46875 L 8.515625 17.40625 C 6.503906 15.820312 5.109375 14.019531 4.328125 12 C 3.554688 9.976562 3.523438 8.078125 4.234375 6.296875 C 4.941406 4.515625 6.492188 3.164062 8.890625 2.25 L 21.765625 -2.6875 L 20.421875 -6.1875 L 24.4375 -7.734375 L 25.78125 -4.234375 L 32.609375 -6.859375 L 34.65625 -1.53125 L 27.828125 1.09375 L 30.640625 8.421875 L 26.625 9.96875 L 23.8125 2.640625 L 11.921875 7.203125 C 10.671875 7.679688 9.882812 8.234375 9.5625 8.859375 C 9.238281 9.484375 9.242188 10.242188 9.578125 11.140625 C 9.960938 12.140625 10.796875 13.25 12.078125 14.46875 Z M 12.078125 14.46875 "/></g></g></g></svg>